<svg xmlns="http://www.w3.org/2000/svg" xmlns:xlink="http://www.w3.org/1999/xlink" viewBox="0 0 1250 1250"><defs><style>.cls-1{opacity:0.45;}.cls-2{opacity:0.41;}.cls-3{fill:#b88865;}.cls-4{fill:url(#radial-gradient);}.cls-5{fill:#c29371;}.cls-6{fill:url(#linear-gradient);}.cls-7{fill:#ba8c6a;}.cls-8{fill:url(#linear-gradient-2);}.cls-9{fill:#494949;}.cls-10{fill:url(#linear-gradient-3);}.cls-11{fill:#fabea0;}.cls-12{fill:#fcc5a9;}.cls-13{fill:#cce0b3;}.cls-14{fill:url(#linear-gradient-4);}.cls-15{fill:url(#radial-gradient-2);}.cls-16{fill:url(#linear-gradient-5);}.cls-17{fill:url(#linear-gradient-6);}.cls-18{fill:url(#linear-gradient-7);}.cls-19{fill:#facbb4;}.cls-20{fill:url(#linear-gradient-8);}.cls-21{fill:url(#linear-gradient-9);}.cls-22{fill:url(#radial-gradient-3);}.cls-23{fill:#fde0d1;}.cls-24{fill:url(#linear-gradient-10);}.cls-25{fill:url(#linear-gradient-11);}.cls-26{fill:url(#linear-gradient-12);}.cls-27{fill:url(#linear-gradient-13);}.cls-28{fill:url(#linear-gradient-14);}.cls-29{fill:url(#linear-gradient-15);}.cls-30{fill:url(#linear-gradient-16);}.cls-31{fill:url(#linear-gradient-17);}</style><radialGradient id="radial-gradient" cx="322.3" cy="787.21" r="342.81" gradientTransform="translate(0 768.36) scale(1 0.13)" gradientUnits="userSpaceOnUse"><stop offset="0" stop-color="#cdd3fa"/><stop offset="0.09" stop-color="#cfd5fa" stop-opacity="0.95"/><stop offset="0.25" stop-color="#d6dbfb" stop-opacity="0.82"/><stop offset="0.48" stop-color="#e1e4fc" stop-opacity="0.6"/><stop offset="0.74" stop-color="#eff1fd" stop-opacity="0.31"/><stop offset="1" stop-color="#fff" stop-opacity="0"/></radialGradient><linearGradient id="linear-gradient" x1="336.93" y1="848.29" x2="336.93" y2="776.03" gradientUnits="userSpaceOnUse"><stop offset="0.15" stop-color="#c2e2f9"/><stop offset="1" stop-color="#86ccfd"/></linearGradient><linearGradient id="linear-gradient-2" x1="336.26" y1="543.66" x2="336.26" y2="789.66" gradientUnits="userSpaceOnUse"><stop offset="0" stop-color="#bee3fd"/><stop offset="0.22" stop-color="#86ccfd"/><stop offset="0.52" stop-color="#86c5fd"/><stop offset="1" stop-color="#86befd"/></linearGradient><linearGradient id="linear-gradient-3" x1="896.44" y1="374.09" x2="911.71" y2="374.09" gradientUnits="userSpaceOnUse"><stop offset="0" stop-color="#f5ba9d"/><stop offset="0.17" stop-color="#f7bb9e"/><stop offset="1" stop-color="#fabea0"/></linearGradient><linearGradient id="linear-gradient-4" x1="872.29" y1="472.45" x2="930.68" y2="472.45" gradientUnits="userSpaceOnUse"><stop offset="0.09" stop-color="#c79f84"/><stop offset="0.85" stop-color="#c79f84"/><stop offset="1" stop-color="#c79f84"/></linearGradient><radialGradient id="radial-gradient-2" cx="901.15" cy="654.13" r="245.7" gradientTransform="translate(0 682.54) scale(1 0.13)" xlink:href="#radial-gradient"/><linearGradient id="linear-gradient-5" x1="902.7" y1="764.21" x2="902.7" y2="679.61" xlink:href="#linear-gradient"/><linearGradient id="linear-gradient-6" x1="786.05" y1="676.17" x2="866.13" y2="676.17" xlink:href="#linear-gradient"/><linearGradient id="linear-gradient-7" x1="941.97" y1="681.69" x2="1026.63" y2="681.69" xlink:href="#linear-gradient"/><linearGradient id="linear-gradient-8" x1="583.13" y1="369.36" x2="600.53" y2="369.36" gradientUnits="userSpaceOnUse"><stop offset="0" stop-color="#f8d7ca"/><stop offset="0.72" stop-color="#f8d7ca"/><stop offset="0.78" stop-color="#f8d7ca" stop-opacity="0.99"/><stop offset="0.81" stop-color="#f8d7ca" stop-opacity="0.95"/><stop offset="0.85" stop-color="#f8d7ca" stop-opacity="0.89"/><stop offset="0.88" stop-color="#f8d7ca" stop-opacity="0.8"/><stop offset="0.9" stop-color="#f8d7ca" stop-opacity="0.69"/><stop offset="0.93" stop-color="#f8d7ca" stop-opacity="0.55"/><stop offset="0.96" stop-color="#f8d7ca" stop-opacity="0.38"/><stop offset="0.98" stop-color="#f8d7ca" stop-opacity="0.19"/><stop offset="1" stop-color="#f8d7ca" stop-opacity="0"/></linearGradient><linearGradient id="linear-gradient-9" x1="592.48" y1="368.97" x2="610.99" y2="368.97" xlink:href="#linear-gradient-8"/><radialGradient id="radial-gradient-3" cx="627.7" cy="906.73" r="342.81" gradientTransform="translate(0 845.44) scale(1 0.13)" xlink:href="#radial-gradient"/><linearGradient id="linear-gradient-10" x1="648.96" y1="579.42" x2="648.96" y2="449.14" xlink:href="#linear-gradient-4"/><linearGradient id="linear-gradient-11" x1="619.08" y1="926.91" x2="619.08" y2="839.35" gradientUnits="userSpaceOnUse"><stop offset="0.15" stop-color="#18b2e8"/><stop offset="0.41" stop-color="#18b2e8"/><stop offset="0.56" stop-color="#1bb3e8"/><stop offset="0.65" stop-color="#23b5e8"/><stop offset="0.73" stop-color="#32b8e8"/><stop offset="0.79" stop-color="#47bde8"/><stop offset="0.86" stop-color="#61c3e8"/><stop offset="0.91" stop-color="#82cae8"/><stop offset="0.97" stop-color="#a9d3e8"/><stop offset="1" stop-color="#c2d9e8"/></linearGradient><linearGradient id="linear-gradient-12" x1="512.98" y1="926.55" x2="512.98" y2="849.33" xlink:href="#linear-gradient-11"/><linearGradient id="linear-gradient-13" x1="690.8" y1="910.66" x2="690.8" y2="842.22" xlink:href="#linear-gradient-11"/><linearGradient id="linear-gradient-14" x1="619.47" y1="575.76" x2="619.47" y2="864.08" gradientUnits="userSpaceOnUse"><stop offset="0.24" stop-color="#daeffa"/><stop offset="0.98" stop-color="#bfe0e6"/></linearGradient><linearGradient id="linear-gradient-15" x1="782.94" y1="924.24" x2="782.94" y2="836.71" xlink:href="#linear-gradient-11"/><linearGradient id="linear-gradient-16" x1="576.27" y1="758.97" x2="576.27" y2="435.67" xlink:href="#linear-gradient-4"/><linearGradient id="linear-gradient-17" x1="448.95" y1="935.77" x2="448.95" y2="845.36" gradientUnits="userSpaceOnUse"><stop offset="0" stop-color="#c2d9e8"/><stop offset="0.03" stop-color="#a9d3e8"/><stop offset="0.09" stop-color="#82cae8"/><stop offset="0.14" stop-color="#61c3e8"/><stop offset="0.21" stop-color="#47bde8"/><stop offset="0.27" stop-color="#32b8e8"/><stop offset="0.35" stop-color="#23b5e8"/><stop offset="0.44" stop-color="#1bb3e8"/><stop offset="0.59" stop-color="#18b2e8"/><stop offset="0.85" stop-color="#18b2e8"/></linearGradient></defs><title>Lower_Back_New_f1</title><g id="Heart"><path class="cls-3" d="M322,304.31a118.29,118.29,0,0,0-3.62-30.79,2.9,2.9,0,0,0-1.29-2.11,2,2,0,0,0-2.45,1.34c-.52,1.43-.13,3.3.05,4.76l.72,5.74c.52,4.15,1.27,8.36,1.41,12.54.12,3.34.11,6.69,0,10-.1,2.43.45,6.68-1.23,8.64a2.15,2.15,0,0,1-2.34.74,3.1,3.1,0,0,1-1.47-1.95c-1-2.8-.44-7-.24-9.93.26-3.67.81-7.3,1.42-10.93,1.22-7.26,2.73-14.53,2.77-21.93,0-1.38-.2-3-1.43-3.64a2.69,2.69,0,0,0-3.29,1.33,8.53,8.53,0,0,0-.78,3.79,65.82,65.82,0,0,1-1.95,12.55c-.49,1.91-1.42,3.88-1.64,5.84-.19,1.65-.29,3.3-.49,5-.73,6.12-.38,12.36-.1,18.5a93.48,93.48,0,0,0,.81,11.23c.55,3.32-1.23,7.35-2,10.6a1.94,1.94,0,0,0,.17,1.81c1.61,1.64,5.42-3.37,6.18-4.45a18.42,18.42,0,0,0,3.25-8.27,27.52,27.52,0,0,0,1.45,7.16,10,10,0,0,0,4.64,5.46,5,5,0,0,0,3.09.51,2.94,2.94,0,0,0,2.29-2c.38-1.4-.56-2-1.48-2.69a5.51,5.51,0,0,1-2.23-3,59.6,59.6,0,0,1-1.55-18.25c.16-2.37-.37-4.5-.34-6.87.05-3.24,0-6.49,0-9.73-.05-3,.45-6.42-1.12-9.11-.41-.72-1.1-1.44-1.91-1.32a1.65,1.65,0,0,0-1.26,1.5,5.08,5.08,0,0,0,.32,2.06,45.29,45.29,0,0,1,.31,23.68q-.09.38-.21.75"/><path class="cls-4" d="M308.6,793.89c-116.26,0-222.76,6.54-305.34,17.4V925.37c82.58,10.86,189.08,17.4,305.34,17.4,262.43,0,475.17-33.33,475.17-74.44S571,793.89,308.6,793.89Z"/><path class="cls-5" d="M322.68,313.9a19.1,19.1,0,0,1-4.18-5.76,3.41,3.41,0,0,0-6.22,2.63,19,19,0,0,0,5.12,8.4,3.82,3.82,0,0,0,5.28,0A3.78,3.78,0,0,0,322.68,313.9Z"/><path class="cls-5" d="M306.42,319.17a3.81,3.81,0,0,0,5.27,0,18.87,18.87,0,0,0,5.12-8.4,3.41,3.41,0,0,0-6.22-2.63,19.24,19.24,0,0,1-4.17,5.76A3.77,3.77,0,0,0,306.42,319.17Z"/><path class="cls-6" d="M449.18,796c-10.94-11.33-26-17.14-41.38-19.14-17.56-2.28-35.12.55-52.37,3.78-18.24,3.42-37.35,7.16-55.81,3.15-12.36-2.69-23.5-6-36.28-5.74-9.54.23-17.07,6.86-26.94,7.42-6,.33-7.47.42-11.67,3.85-5.7,4.65-10.83,8.57-12.67,16.2a24.19,24.19,0,0,0,4.85,20.84c5.16,6.19,13.06,9.35,20.81,11.6a140.48,140.48,0,0,0,41.72,5.56c5.38-.1,10.27-1.24,15.53-1.89,6.63-.82,13.14.2,19.77-1.24,18.28-4,31.53-18.28,45.3-29.83,8.57-7.19,21.78-9.57,30.42-.91,6.65,6.67,7.51,18.3,1.91,25.88-1.43,1.93-3.3,3.88-3.15,6.27.22,3.56,4.55,5.13,8.08,5.63a93.79,93.79,0,0,0,54.87-9.2c9.56-4.84,11.65-7.82,9.52-18.81A46.84,46.84,0,0,0,449.18,796Z"/><path class="cls-5" d="M426.65,416.46c-.65-1.06-1.34-2.11-2-3.13-2-3-4.22-5.93-6.5-8.76-13.55-16.82-30.56-30.33-46.63-44.59a263.92,263.92,0,0,1-23-22.51,139.07,139.07,0,0,1-9.91-12.53c-2.78-4-11.63-13.32-15.64-4.4-3.08,6.84,4.59,17.77,8.3,22.81,15.05,20.48,27.79,40.6,42.85,61.08,7.47,10.17,12.89,21.61,22,30.33,9.33,8.95,21.63,8.67,29,3.73C434.13,432.41,431.26,424,426.65,416.46Z"/><path class="cls-5" d="M432.17,438.06c.07-6.88-.49-14.07-4.07-19.06-2-2.81-6.38-3.81-9.83-4a9.87,9.87,0,0,0-6.61,2.53c-4.06,3.38-5.71,8.54-8,13.18a159.16,159.16,0,0,0-6.82,16.1,144.45,144.45,0,0,0-7.61,33.6c-1.16,11.07-.23,25.13.21,36.24.43,10.67.93,21.81,3.47,32.22,2,8.26.9,24.87,11.17,24.54,11.18-.36,17.24-18.87,18.43-27.08,3.32-22.92,5.43-46,7.11-69.07q.72-9.78,1.37-19.57c.25-3.81.67-7.6.75-11.41C431.82,444.11,432.14,440.44,432.17,438.06Z"/><path class="cls-5" d="M401.82,511.6c-3.74-2-8.37-2-14.1.94a28.91,28.91,0,0,0-9.29,8.26c-6.33,8.07-12.61,16.34-14.13,26.47-1.65,10.93,4.08,22.87,7.5,33.15s7.2,20.24,11.39,30.13c5,11.74,14,24.16,16.91,36.42.61,2.57,1.06,5.27,2.55,7.45s4.41,3.68,6.82,2.59c2.7-1.22,3.27-4.75,3.47-7.71,1-15.14,2.54-30.09,3.57-45.22.75-11.07,1.23-22.18,1.13-33.28C417.54,559.06,416.71,519.55,401.82,511.6Z"/><path class="cls-7" d="M354.76,529.38a63.49,63.49,0,0,1,1.06-22.74c.66-2.88,1.54-5.86.85-8.74-2.18-9.1-17.79-9.45-24.88-9.65a62.93,62.93,0,0,0-32,7.78,5.29,5.29,0,0,0-1.85,1.62,1.52,1.52,0,0,0-1.32,2c3.23,9.07,2.89,19.39,2.67,28.89-.25,10.58-1.26,21.15-.95,31.74.27,8.93,1.63,18,5,26.31,2.57,6.38,7.87,17.15,14.52,20.07a13.09,13.09,0,0,0,11.06-.34c5.35-2.75,8.06-8.73,10.38-14.27q4.15-10,8.32-19.9c.34-.83,7.9-19.22,8.16-19.22,1.57-7.18.52-14.22-.69-21.3C355,530.88,354.86,530.13,354.76,529.38Z"/><path class="cls-7" d="M348.17,437.52a35.19,35.19,0,0,0-10.44-7.66,34.22,34.22,0,0,0-26.32-.77,39.8,39.8,0,0,0-20.06,17.35A46.64,46.64,0,0,0,285.48,465a45.78,45.78,0,0,0,.23,8.45c.26,3.29-.37,6.58,0,9.92,2,16.42,6.36,28.74,30.29,24.08,9.63-1.88,15-1.58,24.69,0,17.13,2.77,18.58-8.82,20.56-17.2,1.58-6.71,1.19-14.1.59-20.89a57.14,57.14,0,0,0-5.73-20.3A47.54,47.54,0,0,0,348.17,437.52Z"/><path class="cls-7" d="M294.81,486.56a14.08,14.08,0,0,0-1.34-2.55,5.27,5.27,0,0,0-5.05-2.53,4.93,4.93,0,0,0-3.24,2.49,10.55,10.55,0,0,0-1.17,4,24.38,24.38,0,0,0,.61,9.08,8.08,8.08,0,0,0,2.58,4.57c1.45,1.09,4.2,1.35,5.64,0,1.13-1.05,1.93-3.45,2.38-4.91A15.66,15.66,0,0,0,294.81,486.56Z"/><path class="cls-7" d="M367.9,485.27a6.86,6.86,0,0,0-.34-1.15,6,6,0,0,0-4.67-3.95c-3.12-.37-4.84,2.32-6.89,4.09a12.81,12.81,0,0,0-3.55,5.83c-1.18,3.9-.66,9.06,3.86,10.42,6.39,1.93,9.81-5.22,11.26-10.08A10.76,10.76,0,0,0,367.9,485.27Z"/><path class="cls-5" d="M333.22,305.53c-.18-.58-.35-1.16-.52-1.74-1.74-5.88-5-11-7.42-16.65a66.07,66.07,0,0,1-5-20.37,7.8,7.8,0,0,0-.87-3.68,2.51,2.51,0,0,0-3.28-1c-.9.61-1.06,1.86-1.1,2.95-.65,15.31,3.61,30.39,3.83,45.76.05,3.79.12,7.59-.05,11.38-.26,5.67-1.16,10.89,3.44,15.25,2.11,2,6,3.32,9.69,6.48,2.29,2,3.86.29,6.36-1.4a6.35,6.35,0,0,0,2.48-4.9,34.44,34.44,0,0,0-1.17-12.43C337.45,318.64,335.21,312.1,333.22,305.53Z"/><path class="cls-5" d="M210,443.69c7.52,4.67,22,6.56,27.53-.51,7.78-9.94,15.08-24.94,22.18-35.37,14.3-21,26.3-41.58,40.6-62.6,3.52-5.17,10.79-16.37,7.47-23.09-4.33-8.78-12.85.89-15.47,5A141.53,141.53,0,0,1,282.83,340a265.13,265.13,0,0,1-22.15,23.32c-15.54,14.84-32.05,29-45,46.25-2.18,2.92-4.25,5.91-6.18,9-.65,1-1.3,2.11-1.91,3.2C203.27,429.45,200.71,438,210,443.69Z"/><path class="cls-5" d="M210.47,466.65c1.2,6.43,2.4,12.86,3.64,19.28,4.37,22.73,11.15,38.7,17.12,61.08,2.14,8,9.06,27.38,20.21,26.43,10.23-.88,8.44-18.92,9.48-27.35,1.31-10.65.51-21.76-.31-32.41-.86-11.09-1.58-25.16-4-36-2.1-9.34-6.11-18.14-10.81-26.44-4.48-7.89-10.24-14.35-11.95-23.17-1.65-8.59-8.33-7.66-16.14-5.75-6.37,1.55-14,4.34-14,11.8C203.74,440,209.39,460.85,210.47,466.65Z"/><path class="cls-5" d="M238.94,570.72c1.19,11,3,22,5,32.93,2,10.66,3.65,21.87,6.82,32.26,2.85,9.36,13,8.73,16.75.38,4.34-9.53,7.35-20.06,10.27-30.1q4.51-15.48,7.81-31.26c2.19-10.61,9.41-18.18,6.51-28.83-2.7-9.89-12.83-22.33-20.05-29.61a29.19,29.19,0,0,0-10.19-7.12c-6-2.25-10.63-1.71-14.12.72C233.9,519.72,237.68,559.06,238.94,570.72Z"/><path class="cls-5" d="M295.88,305.53c.17-.58.34-1.16.52-1.74,1.73-5.88,5-11,7.41-16.65a65.79,65.79,0,0,0,5-20.37,7.81,7.81,0,0,1,.88-3.68c.69-1.07,2.22-1.72,3.27-1s1.06,1.86,1.11,2.95c.64,15.31-3.62,30.39-3.83,45.76,0,2.48-.19,4.94-.31,7.39a23.24,23.24,0,0,0,.58,3.95,31.5,31.5,0,0,1,.32,4.45,16.17,16.17,0,0,1-2.22,8.53,24.06,24.06,0,0,1-5,5.16,22,22,0,0,1-3.93,2.88,7.53,7.53,0,0,1-3.95,1,18.89,18.89,0,0,1-2.93-.86,5.89,5.89,0,0,1-4.52-5.7,34.66,34.66,0,0,1,1.17-12.43C291.65,318.64,293.89,312.1,295.88,305.53Z"/><path class="cls-8" d="M418.8,763.57c-7.86-14.54-9.88-31.75-10-48.09-.12-18.17,2.55-36.17,5.32-54.07.75-4.88,1.85-9.57-.46-14.31-1.77-3.62-4.6-6.58-7.29-9.58a170.1,170.1,0,0,1-36.76-67.25c-2.12-7.57-2.85-15.57-5.33-23-1.67-5-8.06-4.67-9.83,0-6.07,16.06-11.39,32.59-17.35,48.79-1.39,3.81-3.58,8.25-7.62,8.59-4.56.39-7.44-4.67-9.11-8.93L307,561.57c-1.6-4.05-3.21-13.06-6.06-16.08-3.43-3.65-6.88-.9-8.5,3a30.91,30.91,0,0,0-1.64,7.33c-4.19,27.37-22.5,47.68-32.87,72.49-12.79,30.6,2.87,62.24,6.95,93,2.21,16.7,1.37,34.31-7.16,49.23-2,3.46-.29,8.67,3.89,9.56,26.09,5.55,54.34,13.25,80.88,7.56,23.56-5,46.27-13.46,71-8.9C417.93,779.59,421.1,767.83,418.8,763.57Z"/><path class="cls-9" d="M363.9,455.65c-.19-1.1-.41-2.2-.69-3.29a26,26,0,0,0-6.06-11.72c-3.9-4.08-9.26-6.21-13.72-9.56-4.74-3.55-9.27-6.6-15.22-8-9.62-2.22-20,.92-27.87,6.86a55.15,55.15,0,0,0-14.16,16.53,29.15,29.15,0,0,0-3.89,9.65,43.76,43.76,0,0,0-.55,12.09c.45,4.81,1,10.58,3.47,14.82a9.18,9.18,0,0,0,2.74,3c.71.48,2.32,1.94,3.18,1.59s.94-1.73.75-2.75c-1.74-9.24-3.82-18.76-2-28.18,1.34-6.84,5.43-14.14,12.32-16.4,8.22-2.69,16-7,24.83-7.7,6.54-.52,13.62,6.14,20,8,4.62,1.32,6.72,11.2,7.81,15.87a63.64,63.64,0,0,1,1.67,13,69.32,69.32,0,0,1-1.07,12.71,2.42,2.42,0,0,0,.39,2.24c.68.6,1.75.25,2.52-.22a22,22,0,0,0,4.65-3.67c1.72-2,2.29-5.38,2.56-7.89.36-3.33-.44-6.16-.75-9.37C364.56,460.71,364.32,458.17,363.9,455.65Z"/><path class="cls-7" d="M472.44,782c-5.79-12.35-19.55-20-33-16.76-6.71,1.59-12.56,5.55-18.24,9.26-7.13,4.66-13.82,7.7-22.26,9.2-7.75,1.39-15.27,2.57-22.48,5.89-6.82,3.15-12.89,7.7-18.61,12.52-6.79,5.7-13.1,11.94-20,17.52a187.46,187.46,0,0,1-22.7,15.5,170.52,170.52,0,0,1-25.58,12.42c-8.41,3.23-17.18,5.56-25.41,9.18-1.66.72-1.59,2.62-.66,3.83-2.49,3.92-.69,10.6,5.41,10.67,35,.39,70.72.71,104.7-8.8,17.46-4.89,33.22-13.56,50.08-20,14.26-5.42,30.54-9,41.18-20.76C474.44,811.07,478.73,795.43,472.44,782Z"/><path class="cls-7" d="M453.27,768.93c-4.15-3.88-10.57-5.06-15.24-2.61-26.26,13.78-55.09,13.35-28.55,32.58a25,25,0,0,0,17,4.47c11-1,26.34-8.46,29.91-19.82C458,778.6,457.2,772.59,453.27,768.93Z"/><path class="cls-7" d="M277.43,862.46c-.3,0-.6,0-.9.07.84-3.68-2.09-8.27-7-7.13-24.39,5.68-49.11,3.65-72.67-4.55-4.79-1.67-8.93,5-5.55,8.59a5.59,5.59,0,0,0,3.5,6.66q2.49.78,5,1.38c-3.45,2.41-.91,8.23,3.13,8.37l1.19,0a13.89,13.89,0,0,0-.64,2.42c-.44,2.73,1.22,6.46,4.63,6.08,12.14-1.34,24.23-3.27,36.2-5.71,5.92-1.21,11.76-2.81,17.58-4.42s11.86-2.88,17.15-5.69C281.92,867.07,280.67,862.3,277.43,862.46Z"/><path class="cls-7" d="M261.11,800.28a64.32,64.32,0,0,0-14.81-7.09c-13.61-4.48-28.27-4.52-42.42-5.56-10.09-.73-20.86-2.26-30.92-.8-7.91,1.15-15.7,5.42-18.93,13.06-3.43,8.13.22,17.22,6.71,22.65C168,828.61,178,830.46,187,832a240.49,240.49,0,0,0,31.78,3.23A237.55,237.55,0,0,0,251,834.17c8.15-.83,18.06-1.93,21.3-10.86C275.86,813.6,269.36,805.75,261.11,800.28Z"/><path class="cls-5" d="M383.62,862.8c-16.27-5.63-32.4-11.72-48.74-17.11-14.76-4.87-30.26-8.87-44.44-15.3-5.81-2.63-11.42-5.88-15.9-10.48s-7.4-10.82-11.35-16.07c-8.63-11.47-20.49-13.27-34.08-14.18-9-.6-18.91-1.79-27.91-2.35-4.84-.31-9.69-2.58-14.64-3.14a50.79,50.79,0,0,0-15.66.5c-10.31,2.08-19,8.47-21.78,18.92-3.23,12,2.7,21.81,11.39,29.28,9.85,8.45,19.21,14.71,31.4,19.69,37.37,15.25,77.56,18.42,117.51,18.8q36.54.36,73.11-.51C387.27,870.73,388,864.3,383.62,862.8Z"/><path class="cls-5" d="M459,844.3c5.28-2.31,1.28-9.71-3.7-8.77-15.44,2.92-30.72,6.29-46,10.08-12.18,3-25,5.36-36.88,9.7-10.93-3.17-23.49,2.23-28,12.85-1.78,4.15.25,8.84,5.17,9a923.5,923.5,0,0,0,96.87-1.64c2.23-.16,4.79-1.57,5.24-4,.27-1.43.56-2.3,2.21-2.35,5.88-.16,6.67-7.31,2.65-9.83,5.19-1.42,4.78-9.77-1.31-10l-7.24-.25c.14-.07.28-.14.41-.19Z"/><path class="cls-10" d="M908.86,375.54a85.11,85.11,0,0,0-2.6-22.07,2,2,0,0,0-.93-1.5,1.43,1.43,0,0,0-1.75.95,7.9,7.9,0,0,0,0,3.42l.51,4.11c.37,3,.91,6,1,9,.08,2.39.08,4.8,0,7.19-.06,1.75.33,4.79-.88,6.2a1.53,1.53,0,0,1-1.68.53,2.26,2.26,0,0,1-1.05-1.4c-.74-2-.31-5-.17-7.12.19-2.62.58-5.23,1-7.83.87-5.2,2-10.42,2-15.72,0-1-.14-2.17-1-2.61a1.94,1.94,0,0,0-2.36.95,6.26,6.26,0,0,0-.56,2.72,46.35,46.35,0,0,1-1.4,9,33.2,33.2,0,0,0-1.17,4.2c-.14,1.17-.21,2.36-.35,3.54a80.54,80.54,0,0,0-.07,13.27,65.6,65.6,0,0,0,.58,8c.39,2.38-.88,5.26-1.46,7.59a1.37,1.37,0,0,0,.13,1.3c1.15,1.18,3.88-2.42,4.43-3.19a13.29,13.29,0,0,0,2.32-5.92,19.83,19.83,0,0,0,1.05,5.13,7.13,7.13,0,0,0,3.32,3.91,3.51,3.51,0,0,0,2.22.36,2.08,2.08,0,0,0,1.63-1.42c.28-1-.4-1.43-1.06-1.93a4,4,0,0,1-1.6-2.18A43.33,43.33,0,0,1,907.87,381c.12-1.7-.26-3.23-.24-4.92,0-2.33,0-4.65,0-7,0-2.15.33-4.6-.8-6.53-.29-.51-.79-1-1.37-.94a1.18,1.18,0,0,0-.9,1.07,3.75,3.75,0,0,0,.22,1.48,32.46,32.46,0,0,1,.23,17,5.44,5.44,0,0,1-.15.54"/><path class="cls-11" d="M909.32,382.42a13.62,13.62,0,0,1-3-4.13,2.44,2.44,0,0,0-4.46,1.88,13.57,13.57,0,0,0,3.67,6,2.67,2.67,0,1,0,3.78-3.78Z"/><path class="cls-11" d="M897.67,386.2a2.74,2.74,0,0,0,3.78,0,13.57,13.57,0,0,0,3.67-6,2.45,2.45,0,0,0-4.46-1.88,13.79,13.79,0,0,1-3,4.13A2.71,2.71,0,0,0,897.67,386.2Z"/><path class="cls-11" d="M924.41,526.9a39.65,39.65,0,0,1,.76-16.29c.48-2.07,1.1-4.21.61-6.26-1.19-5-7.73-6.25-12-6.6a117.58,117.58,0,0,0-21.39.27,19,19,0,0,0-7.37,1.84,7.77,7.77,0,0,0-3.93,4.7c-.54,2.17.76,4.39,1.33,6.48,1.27,4.69.89,9.36.77,14.22-.18,7.59-1.19,15.08-1,22.67.19,6.4,3,14,5.36,20,1.84,4.57,5.64,12.29,10.41,14.38a9.36,9.36,0,0,0,7.93-.24c3.83-2,5.77-6.25,7.43-10.23l6-14.26c.25-.59,5.66-13.77,5.85-13.77C926.28,538.64,926.94,540.23,924.41,526.9Z"/><path class="cls-11" d="M920.36,461.28a54.68,54.68,0,0,0-8.15-4.54,24.54,24.54,0,0,0-18.87-.55,32.6,32.6,0,0,0-15.45,13.24c-2.86,5-2,13.05-1.78,18.59.21,6,1.09,11.73,1.7,17.64.55,5.43.81,10.09,6.68,12.61,4.06,1.74,8.65,1.52,13,1.28l15-.84c6.51-.36,12.44-.5,14.77-7.67,1-3.16,1-6.55,1-9.87a226.52,226.52,0,0,0-2.16-28.71,21.25,21.25,0,0,0-1.81-7A12.89,12.89,0,0,0,920.36,461.28Z"/><path class="cls-11" d="M879.72,498.38a9.53,9.53,0,0,0-1.28-1.61,3.78,3.78,0,0,0-3.9-1.1,3.55,3.55,0,0,0-1.94,2.19,7.54,7.54,0,0,0-.28,3,17.57,17.57,0,0,0,1.66,6.31,5.8,5.8,0,0,0,2.43,2.86,3.47,3.47,0,0,0,4-.74,9,9,0,0,0,1-3.77A11.21,11.21,0,0,0,879.72,498.38Z"/><path class="cls-11" d="M932.94,495.6a5.59,5.59,0,0,0-.43-.75,4.34,4.34,0,0,0-4-1.91c-2.23.29-2.95,2.46-4.06,4.05a9.05,9.05,0,0,0-1.43,4.68c-.14,2.92,1.14,6.41,4.51,6.56,4.78.21,5.9-5.36,6-9A7.55,7.55,0,0,0,932.94,495.6Z"/><path class="cls-12" d="M916.87,376.42c-.12-.42-.24-.83-.37-1.25-1.24-4.21-3.61-7.89-5.31-11.93a47.51,47.51,0,0,1-3.59-14.6A5.64,5.64,0,0,0,907,346a1.79,1.79,0,0,0-2.35-.72,2.53,2.53,0,0,0-.79,2.11c-.46,11,2.59,21.78,2.74,32.8,0,2.71.09,5.44,0,8.15-.18,4.07-.58,10.9,2.71,14,1.52,1.43,3.17-.71,5.07.14s4.4,1.62,6.2.41a4.6,4.6,0,0,0,1.78-3.52,25,25,0,0,0-.84-8.91C919.91,385.81,918.3,381.13,916.87,376.42Z"/><path class="cls-12" d="M822.44,492.5c5.39,3.34,15.78,4.7,19.74-.37,5.57-7.12,10.81-17.87,15.89-25.35,10.25-15.07,21.25-28.43,29.11-44.87,10.9-22.81,12.71-21.11,5.66-25-2.44-1.33-4.91-.85-7.34.5s-7.18,8.68-9,10.76c-19,21.46-39.17,42-54.36,66.28-.47.75-.93,1.51-1.37,2.29C817.64,482.29,815.81,488.38,822.44,492.5Z"/><path class="cls-12" d="M816.42,492.68c-.5,7-.85,14-.7,21.07a108.32,108.32,0,0,0,2.59,20.91c1.53,7,4.22,13.25,6.34,19.94,1.46,4.57,4,9.36,9.52,8.89,6.88-.59,13.16-11.84,16-17.42a48.82,48.82,0,0,0,5.31-24.54c-.73-13.89-8.25-24.47-18.82-35.79-1.2-1.3-3-1.82-4-3.22a23.39,23.39,0,0,0-3.73-4.62,6.2,6.2,0,0,0-10.28,2.21C816.78,484,816.72,488.53,816.42,492.68Z"/><path class="cls-12" d="M823.22,562.59c1.25,7.08,7.91,19.26,11.66,29.09,1.34,3.51.89,8.16,4.2,9.94a8,8,0,0,0,9.54-1.6c2.37-2.6,1.29-4.66,1.49-7.76.57-8.72,4.76-18,6.55-26.65,1.57-7.6,6.75-13,4.67-20.67-1.94-7.09-9.2-16-14.37-21.22a20.83,20.83,0,0,0-7.31-5.1c-4.32-1.62-7.62-1.23-10.12.51C819.6,526,821.76,554.31,823.22,562.59Z"/><path class="cls-12" d="M979.53,476c-.41-.79-.84-1.58-1.28-2.34-14.2-24.88-33.5-46.21-51.63-68.43-1.76-2.15-6.21-9.67-8.58-11.12s-4.82-2-7.31-.79c-7.2,3.57,1.95,20.86,4.65,25.19C925,434,933,449,942.64,464.51c4.78,7.67,9.57,18.63,14.85,26,3.76,5.23,14.19,4.29,19.71,1.17C984,487.8,982.41,481.64,979.53,476Z"/><path class="cls-12" d="M980.25,478.88c-2.23-1.78-6.06,2.22-8.84,2.88a20.52,20.52,0,0,0-7.52,4c-11,8.47-16.41,25.19-17.14,39.08-.44,8.46-.2,13.71,3.63,21.25,2.84,5.58,9.12,16.83,16,17.42,5.56.47,8.07-4.32,9.52-8.89,1.54-4.84,4.09-8.86,5.76-13.53,5.13-14.38,4.05-33.3,2-48.15a1.36,1.36,0,0,0,0-.2C983.17,489.2,983,481.08,980.25,478.88Z"/><path class="cls-12" d="M971,519.13c-2.5-1.74-5.8-2.13-10.12-.51a20.7,20.7,0,0,0-7.3,5.1c-5.18,5.22-12.44,14.13-14.37,21.22-2.09,7.64,3.09,13.07,4.66,20.67,1.79,8.62,6,17.93,6.55,26.65.2,3.1-.88,5.16,1.49,7.76a8,8,0,0,0,9.54,1.6c3.31-1.78,4.89-5.58,6.23-9.09,3.75-9.82,8.42-25.91,9.55-36.35C978.16,547.82,981,526,971,519.13Z"/><path class="cls-12" d="M890.11,376.42c.13-.42.25-.83.37-1.25,1.25-4.21,3.61-7.89,5.32-11.93a47.21,47.21,0,0,0,3.58-14.6A5.65,5.65,0,0,1,900,346a1.79,1.79,0,0,1,2.35-.72,2.53,2.53,0,0,1,.79,2.11c.46,11-2.59,21.78-2.75,32.8,0,1.77-.13,3.54-.21,5.29a16.21,16.21,0,0,0,.41,2.84,24.17,24.17,0,0,1,.23,3.18,11.53,11.53,0,0,1-1.6,6.12c-.92,1.45-2.07,4.52-3.35,6.23-.7.93-2-1-3-.47a5.38,5.38,0,0,1-2.84.73,13.14,13.14,0,0,1-2.09-.62,4.22,4.22,0,0,1-3.24-4.09,24.53,24.53,0,0,1,.84-8.91C887.08,385.81,888.69,381.13,890.11,376.42Z"/><path class="cls-13" d="M970.31,694.76c-6.5-12-7.43-26.61-7.1-39.84a174.46,174.46,0,0,1,1.89-20.67c1-6.91,2.31-13.3,2.4-20.07.12-8.08,2.12-16.4,4.08-24.2,0,0,2.38-10.11,2.6-14.13.46-8.07,5.82-15.59,3.35-23.81a23.57,23.57,0,0,1-20-6.43c-2.51-2.37-5.1-4.81-6.69-7.89a30.31,30.31,0,0,1-3.27-11.47,8.31,8.31,0,0,0-.4-2.39,2.35,2.35,0,0,0-1.72-1.56c-1.9-.26-2.77,3.26-3.46,4.48-2.5,4.38-6.37,10.18-12.18,8.87-1.21-.28-2.58-.8-3.6-.09s-1,2.06-1.09,3.23c-.51,8.29-10,19.76-18.34,21.49s-19.83-5.93-22-14.1c-1.19-4.51,0-8.58-2.25-9.08-5.51-1.23-11.42,3.12-16.59-3.37-2.33-2.93-2.35-8.13-5.93-9.12a4.22,4.22,0,0,0-4.32,1.6c-1.64,2-.9,6-1.25,8.47-1.39,9.85-7.35,17.75-14.86,24.27-2.62,2.27-5.72,4.28-9.18,4.46s-7.23-2.1-7.66-5.54c-1.92,8.37,4.34,16,7.2,24.06,7.13,20.15,10.5,41.51,16.65,62q4.67,15.54,9,31.2c1,3.73,3.31,8.14,3.65,11.95.36,4.08-2.47,9.28-4.42,12.7-1.42,2.49-.21,6.22,2.79,6.86,18.7,4,38.94,9.49,58,5.42,16.89-3.62,33.17-9.65,50.89-6.38C969.69,706.24,972,697.81,970.31,694.76Z"/><path class="cls-14" d="M930.29,474.1c-.32-6.23-1.59-12.83-6.3-17.27a14.21,14.21,0,0,0-12.09-3.58c-.3-4.23-1.58-5.88-6.22-5.47l-8.78.78a29.64,29.64,0,0,0-8.88,1.72c-4,1.67-7.06,5-10,8.21-1.89,2.09-3.84,4.23-4.86,6.85-1.46,3.77-.82,8-.16,12,.36,2.22,2.11,21.27,5.77,19.78,1.07-.43-1.41-19.39-.85-22.24,1-4.89,3.89-10.13,8.82-11.75,5.9-1.93,11.51-5,17.8-5.52,4.69-.37,9.77,4.4,14.32,5.7,3.31,1,4.82,8,5.6,11.38a45.56,45.56,0,0,1,1.2,9.29,49.59,49.59,0,0,1-.77,9.11,1.77,1.77,0,0,0,.28,1.61c.49.43,1.25.18,1.81-.16,5-3.07,3.5-13.2,3.36-18.67Q930.34,475,930.29,474.1Z"/><ellipse class="cls-15" cx="891.33" cy="765.84" rx="340.58" ry="53.36"/><path class="cls-16" d="M999,714.8c2.19-4,11-17.31,12.49-21.23s2.68-8.29.7-11.88c-2.56-4.64-21-.09-26.33,0-17.23.3-34.73,11.93-51.67,14.41-16.37,2.39-27.19,3.06-43.82-.56-23.48-5.11-48.51-6.42-72.3-1.51-4.63,1-24.32-17.18-25.79-12.69-1.31,4,15.47,28.13,17.74,31.67,9.36,14.54,19.35,29.68,34.57,37.9,10.57,5.71,26.14,11.56,38.12,12.53q6.7.54,13.42.71a182.71,182.71,0,0,0,37.22-2.67c12-2.21,23.43-3.44,33.73-11.05C979.65,741.12,991.17,729.14,999,714.8Z"/><path class="cls-17" d="M857.53,678.29a72.43,72.43,0,0,1-9-12.19c-4.46-7.33-8.39-15.08-14.1-21.48s-15.3-10.24-23.88-10.06c-10.28.21-19.4,8.25-22.72,18s-1.56,18.78,2.85,28.07,12.9,17.92,20,25.33C815.56,711,821,716.15,828,717.47c5.8,1.1,11.85-.71,16.87-3.8,4.83-2.95,8.34-7.06,12.45-10.82,2.84-2.59,6.62-3.84,8.07-7.82,2.07-5.72-.12-9.77-4.24-13.32A46.25,46.25,0,0,1,857.53,678.29Z"/><path class="cls-11" d="M945.78,761.79c-.23-3.12-2.08-6.89-5.08-10.16-7.39-8-17.44-11.32-26.2-17.87-9.18-6.87-20.71-15.44-28.54-23.83-7.65-8.2-13.89-19.33-24.15-23.87-13.88-6.15-42.64,8.5-34.14,27.22,9.05,19.93,45.57,21.21,62,32.23,6.91,4.62,12.56,12.48,19.94,16.2,7.08,3.57,16.94,4.13,24.8,6C942.85,769.64,946.11,766.43,945.78,761.79Z"/><path class="cls-11" d="M912.84,759.93c-2.14-1.87,10.25,2.47,9.76-.56a12.25,12.25,0,0,1,5.9-12.26c4.14-2.33,9.24-2,13.91-1.13,7.56,1.4,13.93.4,21.53-.86s14.74-1.74,21.94-4.29a42.69,42.69,0,0,1,6.29-1.34c2.52-.48,5-1.43,7.51-2.13a6,6,0,0,1,3-.32,3.66,3.66,0,0,1,2.56,3.69,5.75,5.75,0,0,1-2.28,4.13,14.15,14.15,0,0,1-4.31,2.19,3,3,0,1,1,.19,5.81,3.87,3.87,0,0,1-1.83,7.36c1.37.52,1.78,2.42,1.13,3.74a5.87,5.87,0,0,1-3.4,2.61c-2.71,1-5.66.85-8.47,1.39-3.2.61-6.5.53-9.73.88-6.35.71-13.34,1.62-19.66,2.43-7,.89-12-.45-18.91-.75C934.14,770.35,915.8,762.52,912.84,759.93Z"/><path class="cls-12" d="M982.18,710.64a17.41,17.41,0,0,0-4.83-11c-4.81-4.74-12.08-10.93-18.63-9.23-17.54,4.55-34,28-47.94,38.92-6.14,4.81-12.2,10.68-18.89,14.68-4.47,2.67-9.7,3.47-12.46,8.52-7.76,14.21,11.87,20.8,19.64,16.85,4.57-2.33,11-10.29,15.1-13.3,12.74-9.29,40.18-19.91,53.83-27.17C977.87,723.69,983,724.55,982.18,710.64Z"/><path class="cls-18" d="M1001.79,704.81a56.77,56.77,0,0,0,10.1-11,95.32,95.32,0,0,0,12.8-27c1.88-6.46,3-13.57.45-19.78-3.16-7.61-13.13-11-20.86-10.48-9.59.68-18.44,5.71-24.82,12.76a58.59,58.59,0,0,0-11.81,21.37c-2.41,7.4-8.76,12.9-15.18,17.23a51.15,51.15,0,0,0-7,5c-2.09,2-3.67,4.78-3.44,7.67.29,3.61,3.23,6.37,6,8.74,1.42,0,5.49,4.77,6.66,5.78,2.42,2.1,4.83,4.21,7.26,6.31,3.61,3.11,7.25,7.06,12.29,4.87,5.24-2.27,10.21-7.75,14.69-11.28S997.71,708.33,1001.79,704.81Z"/><path class="cls-12" d="M903.44,766.07a12,12,0,0,0,3.06-7.81A12.21,12.21,0,0,0,898.91,747c-4.43-1.72-9.43-.65-13.93.87-7.28,2.46-13.73,2.37-21.43,2.22s-14.84.38-22.32-1.11a35.68,35.68,0,0,0-8.13-.44c-2.65.09-5.34-.92-8-.24-2.39.62-4.51,3-3.89,5.42.66,2.55,3.72,3.49,6.3,4a8.82,8.82,0,0,0-3.65,1.7,3.85,3.85,0,0,0-1.37,3.62,2.51,2.51,0,0,0,3.08,1.87,3.65,3.65,0,0,0-1.53,4.44c.72,1.7,2.53,2.11,4.1,2.3-1.9-.22-.55,5.15,1.32,5.83s4.94.14,7-.1c6-.71,11.88-1.83,18-2,6.39-.21,13.43-.3,19.8-.41,7-.11,11.84-2.16,18.61-3.44C896.65,770.78,900.88,769.05,903.44,766.07Z"/><path class="cls-19" d="M607.27,371.44c-.12-.77-.25-1.54-.33-2.32-.46-4.06-.63-8.18-1-12.25-.78-8-1.75-15.89-2.82-23.81-.81-6-1.88-12-3-17.92-1-5.52-1.22-13.57-4.5-18.25-1.32-1.89-4.44-1.26-5.7.95-2.78,4.91-2.61,11.65-3.1,17.17-.54,6.15-1,12.34-1.34,18.5-.48,8.89-.92,17.79-.76,26.7.08,4.59.32,9.17.8,13.74.43,4.22-2.74,17.79,2.37,17.86,4.59.06,9-8.21,9.15-13,.56,4.25.48,6.81,2.23,9,.88,1.11,4.7,6,6.09,5.75s-.16-3.74.34-5A31.84,31.84,0,0,0,607.27,371.44Z"/><path class="cls-20" d="M599.62,359a5.74,5.74,0,0,0-.73-1.15c-1.9-2.33-4.78-.64-6.33,1.2s-3,3.59-4.52,5.35c-1.1,1.28-2.44,1.9-3,3.57a40,40,0,0,0-1.83,7.7c-.7,4.92,4.34,8.31,8.37,4.87,4.22-3.62,7.82-8.85,8.75-14.41A12.31,12.31,0,0,0,599.62,359Z"/><path class="cls-21" d="M593.06,359.28a5.75,5.75,0,0,1,.64-1.2c1.7-2.49,4.71-1,6.41.66s3.27,3.33,4.94,5c1.2,1.18,2.59,1.69,3.32,3.31a40.31,40.31,0,0,1,2.45,7.52c1.11,4.84-3.63,8.64-7.93,5.54-4.51-3.25-8.53-8.16-9.92-13.63A12.31,12.31,0,0,1,593.06,359.28Z"/><ellipse class="cls-22" cx="614" cy="960.9" rx="475.18" ry="74.44"/><path class="cls-23" d="M577.25,372.18a17.21,17.21,0,0,0-6.26,3.9c-3.86,3.71-5.56,9-9.13,13-5.68,6.33-13.52,11.2-20,16.67a549.78,549.78,0,0,0-74.58,76.12c-3.22,4-6.47,8.22-7.65,13.22-3.69,15.69,19.62,24,31.62,20.07,12.85-4.24,20.25-15.94,26.19-27.3,13-24.81,30.27-46.22,48.61-67.23,4.57-5.24,9.15-10.47,13.6-15.81,4.26-5.11,9.62-10.36,12.48-16.43C598,375.74,587.2,368.7,577.25,372.18Z"/><path class="cls-23" d="M520.25,537.79c-7.45-22.71-23.16-43.67-46.71-51a5.85,5.85,0,0,0-7.53,3.79c-1.18.45-6.93,4.84-6.81,6.32,3.56,45.22,15.62,89.9,47.31,124.74,2.37,2.6,7.94,2.3,9.44-1.22C527,594.38,529.13,564.88,520.25,537.79Z"/><path class="cls-23" d="M569.71,602.93c-6.51-11.32-18-16.48-28.45-24-7.26-5.23-21.48-18.66-31.22-13.34-4,2.18-6.55,6.32-8.41,10.49-8.37,18.73-3.48,37.23,6.22,54.52,4.27,7.59,9,15.4,14.74,22,11.51,13.12,30.46,13.72,43,1.59C578.82,641.3,578.2,617.7,569.71,602.93Z"/><path class="cls-23" d="M581.85,623.1c-1.28-13.93-4.64-31-19.14-34.92-17-4.65-32.1,11.46-36.76,25.68a2.86,2.86,0,0,0-.57,1.55c0,.12,0,.24,0,.35-.4,1.37-.76,2.71-1.06,4a5.26,5.26,0,0,0,.54,4c-.38,6.63-.67,13.27-1,19.91-.3,7.15-.12,14.88,5.6,20,10.28,9.28,26.57,3.89,36.08-3.6A42.76,42.76,0,0,0,581.85,623.1Z"/><path class="cls-23" d="M591.24,358.49a200.87,200.87,0,0,1-1.09-20.81c0-13.76,2.25-27.81,2.72-41.78a9,9,0,0,0-.44-3.84,3,3,0,0,0-3-2c-1.79.29-2.48,2.45-2.8,4.24-1.56,8.63-2.76,17.42-4.86,25.94-2.5,10.19-7.28,20.26-10.73,30.18a61.45,61.45,0,0,0-3.24,14.07c-.51,4.86,1.18,9.54.94,14.17,0,.18,0,.37,0,.55-.34,8.72,6.75,16.4,15.31,13a10,10,0,0,0,1.48-.31c5.8-1.73,9-4.47,8.49-13.37C593.56,371.88,591.93,365.13,591.24,358.49Z"/><path class="cls-23" d="M604.7,393.81c1,1.06,2,2.06,3.08,3,29.71,27,56.27,57.9,79.88,90.36,7.08,9.73,18.75,26.43,32,27.67,8.47.79,19.82-4.54,21.48-13.31,1.52-8.08-2.13-17.19-6.23-23.93-9.06-14.94-23.87-25.48-37.26-36.23l-71-57c-4.23-3.39-8.71-6.91-14.06-7.79s-12.8-1.74-12.92,3.68C599.57,386.93,601.78,390.68,604.7,393.81Z"/><path class="cls-23" d="M693.51,622.47c.45,6.84,2.16,15.78,10.58,15.57a9.84,9.84,0,0,0,7-3.73,29.23,29.23,0,0,0,4-7.06c5.44-11.94,12.09-23.75,14.82-36.51,2.88-13.48,6.65-26.4,8.17-40.19,1.86-16.93,2.91-35.38,3.37-52.39.2-7.39-2.83-10.62-9.85-13.58a19.86,19.86,0,0,0-8.71-1.55,25.06,25.06,0,0,0-16.4,7.76c-6.66,6.92-9.74,16.47-12,25.81A223.7,223.7,0,0,0,689,586.93c.86,10.89,4.06,21.77,4.41,32.61C693.4,620.44,693.44,621.43,693.51,622.47Z"/><path class="cls-23" d="M650.83,659.17c8.52,9.12,19.83,14,32.12,15.05,11.06,1,19.72,1.62,24.68-10.8,2.54-6.36,2.67-13.37,3.21-20.19,1-13,5.81-26.75,9-39.45,1.65-6.47,3.31-13.18,2.15-19.76-.57-3.23-2.4-5.78-3.28-8.84-.6-2.1-.41-4.33-1-6.47a27.63,27.63,0,0,0-9.12-13.84c-2.26-1.83-5.3-3.34-8-2.26s-3.76,4-5.3,6.32c-4.18,6.37-12.11,9.11-17.55,14.45-3.87,3.82-6.45,8.94-10.91,12-2.93,2-6.43,3.05-9.66,4.58a15.16,15.16,0,0,0-6.31,5c-1.39,2.14-2.85,4-4.36,6.12a46.4,46.4,0,0,0,4.31,58Z"/><path class="cls-23" d="M651.34,665.15c10.09,6.67,26.78,10.69,36.25.59,5.27-5.62,4.81-13.34,3.91-20.44-.84-6.59-1.68-13.18-2.61-19.76a5.3,5.3,0,0,0,.21-4c-.41-1.28-.88-2.59-1.4-3.91,0-.12,0-.24-.05-.35a2.83,2.83,0,0,0-.69-1.5c-5.83-13.78-22.19-28.59-38.77-22.54-14.12,5.15-16.06,22.4-16.17,36.39C631.9,643.85,639.52,657.35,651.34,665.15Z"/><path class="cls-23" d="M600.66,359a200.94,200.94,0,0,0-.65-20.82c-1.15-13.72-4.55-27.53-6.18-41.41a8.85,8.85,0,0,1,.12-3.87,3,3,0,0,1,2.86-2.22c1.81.15,2.67,2.25,3.14,4,2.28,8.47,4.2,17.13,7,25.44,3.35,9.95,8.95,19.59,13.21,29.19a62.11,62.11,0,0,1,4.4,13.75c1.16,6.12-1.17,12.47-.3,18.82a11.87,11.87,0,0,1,.14,4.36c-.49,2.06-3.33,3.65-5,4.73a10.29,10.29,0,0,1-8.65,1,9.9,9.9,0,0,1-1.51-.19c-5.91-1.23-9.31-6.92-9.57-12.61C599.32,372.5,600.52,365.63,600.66,359Z"/><path class="cls-24" d="M669.72,515.26A93.73,93.73,0,0,0,662,480.85c-3.09-6.89-7.18-12.54-11.64-18.54-.73-1-7.14-9.38-14.24-11.23-1.2-.32-7.43-2.79-7.91-1.63s.52,2.05,1.34,2.8c9.11,8.21,18.22,21.8,19.65,33.75.49,4.05.88,8.14,1.19,12.21.64,8.19-.07,14-.72,22.22-1.3,16.49-4.73,35.23-11.38,50.38-2,4.52,1.27,9.64,6.49,8.44,11.46-2.66,16.29-13.93,19.48-24.1A115.08,115.08,0,0,0,669.72,515.26Z"/><path class="cls-25" d="M710.89,858.27a8.22,8.22,0,0,0-2.38-6.16c-3.44-3.55-8.58-4.77-13.43-5.72a372.58,372.58,0,0,0-121.17-3.79c-15.83,2.12-33.29,6.38-41.92,19.82-9,14.09-4.28,34,7.56,45.86s29,16.82,45.72,18.2c27.09,2.24,54.65-4.44,78.14-18a132.73,132.73,0,0,0,32.13-25.74C700.22,877.58,710.71,866.76,710.89,858.27Z"/><path class="cls-26" d="M595.24,892.3c-3.92-8.16-10.63-16.12-17.06-22.47-6.24-6.16-13.87-10.63-22.79-11-5.45-.23-10.92,1.08-16.26,2-14.11,2.32-27.41,3.06-41.59,1.31a240.09,240.09,0,0,1-44.79-9.92c-4.83-1.56-9.83-3.31-14.87-2.7s-10.12,4.42-10.24,9.5a10.5,10.5,0,0,0,4.15,8,26.53,26.53,0,0,0,8.32,4.16,118.5,118.5,0,0,0,27.35,5.92c9.19.87,19-1.21,27.85,1.23a76.67,76.67,0,0,1,13.63,5.14A88.13,88.13,0,0,1,531.71,900c12,11.74,24.51,26.52,42.77,26.53,7.7,0,15.52-2.83,20.11-9.25C599.88,909.9,599,900.15,595.24,892.3Z"/><path class="cls-27" d="M738.5,851.58a79.41,79.41,0,0,1-28.23,4.16c-8.45-.39-17.39-4.58-25.88-4.65-16.78-.16-33.16,5.89-46.81,16.31a59.36,59.36,0,0,0-15.93,18.29c-3.67,6.61-7.63,16.42-.06,21.86,6.77,4.88,17.79,3.13,25.18.77,9.9-3.16,20-5.69,29.89-8.87,4.18-1.34,8.12-1.32,11.91-3.77,5.74-3.71,11.37-7.63,17-11.44l4.1-2.75c7.41-5,14.86-10,22.94-13.76,5.8-2.72,11.9-4.8,17.54-7.84a39.19,39.19,0,0,0,9.11-6.55c2-2,6.63-6.57,4.44-9.68a4,4,0,0,0-4-1.37,12.7,12.7,0,0,0-4.07,1.73A99.38,99.38,0,0,1,738.5,851.58Z"/><path class="cls-28" d="M713.23,844.8c-.05-.16-.1-.32-.16-.47-1.79-4.94-6.73-7.37-7.16-12.88-.41-5.27-.42-10.29-2.68-15.29-2.47-5.46-4.89-10-5.19-16.21-.24-5.06.68-10.1,1-15.16,1-15.57-6.44-30.53-4.24-46.48,1-6.91,3.17-13.58,4.79-20.37a121,121,0,0,0,3.32-26.79c.05-4.61.37-8.78,2.17-13.06,1.56-3.72,4-6.53,3.44-10.88-1.17-8.44-13.27-11.26-18.42-17.59-5.42-6.67-8.75-14.9-11.13-23.09-2.15-7.42-3.64-15-5.54-22.49-1.37-5.42-2.67-15.61-6.42-19.88a8.23,8.23,0,0,0-2.85-1.84c-2.38-1.11-5-.66-7.37-1.76-1.46-.68-8.41-5-10-4.79-4.79.6,2.1,18.77,1.44,22.7-3.09,18.33-6.54,36.86-22.88,48.28a18,18,0,0,1-4.8,2.55c-5.32,1.67-11.23-1-15-5.12s-4.92-9.31-8.2-13.5A54.24,54.24,0,0,1,590.25,619a125.47,125.47,0,0,1-9.83-33.21c-.43-2.9.51-8.09-2.84-9s-10.29,5.87-12.62,8c-4.85,4.42-3.34,6.25-1.74,11.25a73.72,73.72,0,0,1,3.27,19.71c.33,9.06-1.63,15.61-5.12,23.75-5.93,13.84-17.27,25-33.06,25.19-4,.06-3.48,2.93-2.53,7.72,1.8,9.13,6.23,18.08,7,27.29,1,11.57,5.39,20.9,8.36,32,3.37,12.62,0,23.78-1.9,36.21-1.74,11.41,3.17,21.9-.56,33.6-2.11,6.64-5.87,12.85-6.5,19.79-.41,4.61.59,9.23.64,13.86.09,8-5.59,13-7.56,20.44-1.47,5.57,4.74,10.54,9.8,7.54,26.36-15.69,37.47-2.42,87.31-2.92a170.09,170.09,0,0,0,45.72-6.5c11.18-3.14,26.25-5.09,35.77,3.34,3.23,2.85,10.09,3.11,10-2.43l-.07-4.48A19.85,19.85,0,0,0,713.23,844.8Z"/><path class="cls-23" d="M654.52,497.47c-1.76-11.25-4.57-21.06-10.06-31.16a33.09,33.09,0,0,0-28.86-16.79c-10.72.07-20.16,5.89-26.34,14.79A61,61,0,0,0,575.56,492,152.22,152.22,0,0,0,573,509.47c-.55,5.54-1.34,11.23-.5,16.77,1.69,11.21,10.8,19.58,20.89,20.44a38,38,0,0,0,4,.1c8.26-.24,16.34-2.51,24.47-3.82a56.88,56.88,0,0,1,11.79-.89,19.79,19.79,0,0,1,4.87.66c2,.62,4.37.83,6.22-.34s2.54-3.39,3.72-5.43c1.68-2.92,4.21-6.09,5.28-9.28a46.31,46.31,0,0,0,1.82-9.65A81,81,0,0,0,654.52,497.47Z"/><path class="cls-23" d="M667.47,518.92a6.23,6.23,0,0,0,.14-4.47,5.9,5.9,0,0,0-4.9-3.24,15.3,15.3,0,0,0-6,.94,13.82,13.82,0,0,0-5.4,2.7,9.84,9.84,0,0,0-2.78,5.41,14.18,14.18,0,0,0,1,8.81c.17.36-.09,1.34,0,1.79a4.73,4.73,0,0,0,.82,2.07,6.56,6.56,0,0,0,9.41.64,12.19,12.19,0,0,0,2.08-3.19l4.46-8.71A21.93,21.93,0,0,0,667.47,518.92Z"/><path class="cls-23" d="M646.36,569.64c-.13-2.5-.22-5-.24-7.49A169.43,169.43,0,0,1,647.58,538c.85-6.42,4.92-13.84-2.29-17.4-5.16-2.55-12.41-1.85-18-1.81a168.35,168.35,0,0,0-42.19,5.65,5.72,5.72,0,0,0-4.36,6.46,1.81,1.81,0,0,0-1.08,2.16c1.35,5.48,3.18,10.54,3.32,16.28A120.75,120.75,0,0,1,581.79,567c-1.47,11.88-3.34,24.24.64,35.8,4.47,13,10.4,25.69,15.56,38.44,2.59,6.39,5.86,13.47,12.36,15.8,7.33,2.62,15.24-2.12,20.75-7.62,10-10,15.55-23,19.62-36.34,1.95-6.38.43-11.42-1-17.8A159,159,0,0,1,646.36,569.64Z"/><path class="cls-19" d="M798.46,879.18c-15.66-25-41.39-22.1-65.81-11.45-14.49,6.32-31.89,19.53-46.19,26a376.07,376.07,0,0,1-48.75,18.62c-9.25,2.78-22.47,6.45-32.13,6.25-9-.19-10.77-1.2-15.87,4.32-17.13,18.56-43.65,27.35-67.85,32.14-9.32,1.84-21.73.67-28.75,8.19-2.37,2.53-3.62,6.45-2.07,9.55,2.27,4.55,8,3.79,13.07,3.39,20.9-1.65,41.86-8,62.65-11.81,29.64-5.37,59.35-10.63,89.45-11.44,29.58-.79,59.5,1.92,88.8-2.79,21.38-3.43,64.29-20.79,72.18-44.34C821.42,893.15,805.23,890,798.46,879.18Z"/><path class="cls-19" d="M754.85,959.26c-9.6-4.64-18.59-7.86-29.23-8.84-9-.83-20.48-1.33-27.87,4.53a81.39,81.39,0,0,0-15.31,1.3,41.69,41.69,0,0,0-11.07,3.24c-2.17,1.1-6,3.6-4.94,6.54a4.91,4.91,0,0,0,3.78,2.86,15.14,15.14,0,0,0,4.93-.14,310.47,310.47,0,0,1,40.07-2.93q10.15-.09,20.3.49c3.38.19,6.76.43,10.13.74,1.61.14,3.23.3,4.85.47a21.28,21.28,0,0,0,5.47-.17C760.09,966.43,758.3,960.93,754.85,959.26Z"/><path class="cls-29" d="M829.36,845.75c-13.85-9-33-10.12-49-8.33a92.45,92.45,0,0,0-34.33,11.27c-5.17,2.85-10.15,6.06-15,9.36-2.84,1.91-7.06,3.37-9,6.32-4.19,6.36,6.93,5.15,9.38,4.19,9.45-3.68,19.47-7.83,29.59-8.37,9-.49,17.62,3.74,24.33,9.57,12.1,10.52,21.36,24,20.33,40.48-.68,10.82-5.37,18.23,3.94,11.32C822.42,912,836.25,901,842.21,886,848.35,870.51,843.35,854.81,829.36,845.75Z"/><path class="cls-30" d="M620.24,620.79a44.34,44.34,0,0,0-9.88-14.29c-4.1-3.92-8.93-7-12.93-11.06-4.36,0-7.35-16.29-8.44-19.18-2.93-7.83-1.57-17.6-1.64-26,0-2-.14-3.84-1.54-5.44a27.8,27.8,0,0,0-2.51-2.34,25.59,25.59,0,0,1-7.69-12.79c-1.33-5.33-.54-10.71-.9-16.11-1-14.55,1.9-28.15,9.38-40.68,8.63-14.46,25.09-28.37,43-21.65,2,.75,4.12,1.74,6.17,1.14a5.18,5.18,0,0,0,3.39-4.09,8.66,8.66,0,0,0-1-5.4c-5.12-10-23.14-8-31.72-3.57-4.64,2.4-7.56,5.43-11.38,9A107.39,107.39,0,0,0,578,464.43c-9.62,13.53-14.29,30.71-17.54,46.83-1.78,8.8-6,16.73-8.28,25.51a97,97,0,0,0-2.69,31.88c.52,6.13,1.59,12.46-.32,18.31-1.5,4.57-4.78,8.66-5,13.47-.35,9.5,8.05,17,7.49,26.56-.23,3.83-1.7,8.22-2.5,12a71.38,71.38,0,0,1-5.24,15c-3.42,7.53-7.46,14.82-9.92,22.71-1.78,5.72-2.69,11.68-4.33,17.44-1.82,6.41-4.64,14.18-10.66,17.77a12.65,12.65,0,0,0-2.22,1.45,2.86,2.86,0,0,0-1,2.34c.18,1.54,2,2.33,3.5,2.45a10.21,10.21,0,0,0,8-2.92,54.51,54.51,0,0,1-.76,9.66c-.72,4.42-1.36,8.35-3.75,12.27-.62,1-1.32,2.28-.75,3.32.7,1.26,2.58,1,3.87.4a13,13,0,0,0,6.3-6.78,28.73,28.73,0,0,1-1.06,19.51c-.57,1.32-1.24,2.88-.53,4.14.91,1.6,3.31,1.41,5,.6,6.38-3.13,7-10,6.58-16.24-.56-7.6-1.93-15.15-2-22.79l4.13,8.6a58.06,58.06,0,0,0,6.49,11.24c3.61,4.52,9.2,8.14,15.12,8.06,4.78-.05,8.09-2.34,6.3-7.47-4.9-14-11.6-35.19-4.82-49.71a61.23,61.23,0,0,0,14.13,37c5.44,6.56,14.39-2.41,9.85-9,5,3.94,14.64.34,11.72-7-4.65-11.66-10.31-29.45-7.34-42,4.71,1.84,4.18,12.29,4.84,16.58.2,1.29.5,2.74,1.62,3.41,1.31.78,3.11,0,3.92-1.33a9,9,0,0,0,1-4.43l2.22-55.74a74.44,74.44,0,0,1,2.94,40.67,43.77,43.77,0,0,0,8.11-47.35Z"/><path class="cls-23" d="M758.31,951.28c-18.6-4.52-59.92-2.21-79.85-3.1-20.88-.94-16.24-5.87-37.16-6.12-23.1-.29-37.74-11.53-56.84-17.23-36.67-11-38.08-19.42-55.72-30.91-16.09-10.47-38.5-20.95-58-19-19.72,2-42.44,16-44.53,36.5-2.76,27.05,27.33,43.13,49.71,49.63,27.75,8,54.15,4.59,82.79,5.87,30.37,1.36,64.37,4.12,94.79,4,66.71-.32,65.8-7.27,101.23-8.6C760.85,962.07,764.8,952.86,758.31,951.28Z"/><path class="cls-31" d="M494.58,865.59a130,130,0,0,0-12.77-7.35c-12-6.21-24.64-11.67-38.25-12.72-13.79-1.07-29.13,3.08-38.86,13.31-15,15.78-10.11,36.63-2.75,54.73,2.83,7,7.19,13.53,13.41,17.76s14.48,5.86,21.47,3a19.87,19.87,0,0,1-6-16.69c1.8-14.43,14.29-23.11,26.44-28.91,6.44-3.08,10.63-5.18,16.17-9.32,5.93-4.42,13.53-6.51,20.62-3.5,2.54,1.08,5.62,2.64,7.78.92C505.3,874.11,500.42,869.53,494.58,865.59Z"/></g></svg>